<mxfile host="app.diagrams.net" modified="2023-01-13T18:15:09.617Z" agent="5.0 (Macintosh)" version="20.8.3" etag="2ktuS0__OSrvP9jvXXnH" type="github">
  <diagram id="dIy_7yolNXo8ApJIttfb" name="Page-1">
    <mxGraphModel dx="1361" dy="769" grid="1" gridSize="10" guides="1" tooltips="1" connect="1" arrows="1" fold="1" page="1" pageScale="1" pageWidth="827" pageHeight="1169" math="0" shadow="0">
      <root>
        <mxCell id="0" />
        <mxCell id="1" parent="0" />
        <mxCell id="hBNgbqmmqu0wj6LNBko_-12" style="edgeStyle=orthogonalEdgeStyle;rounded=0;orthogonalLoop=1;jettySize=auto;html=1;" edge="1" parent="1" source="hBNgbqmmqu0wj6LNBko_-8" target="hBNgbqmmqu0wj6LNBko_-9">
          <mxGeometry relative="1" as="geometry" />
        </mxCell>
        <mxCell id="hBNgbqmmqu0wj6LNBko_-8" value="service layer" style="shape=folder;fontStyle=1;spacingTop=10;tabWidth=40;tabHeight=14;tabPosition=left;html=1;align=left;verticalAlign=top;" vertex="1" parent="1">
          <mxGeometry x="200" y="50" width="600" height="240" as="geometry" />
        </mxCell>
        <mxCell id="hBNgbqmmqu0wj6LNBko_-14" style="edgeStyle=orthogonalEdgeStyle;rounded=0;orthogonalLoop=1;jettySize=auto;html=1;" edge="1" parent="1" source="hBNgbqmmqu0wj6LNBko_-2" target="hBNgbqmmqu0wj6LNBko_-6">
          <mxGeometry relative="1" as="geometry" />
        </mxCell>
        <mxCell id="hBNgbqmmqu0wj6LNBko_-2" value="book transfer" style="shape=folder;fontStyle=1;spacingTop=10;tabWidth=40;tabHeight=14;tabPosition=left;html=1;" vertex="1" parent="1">
          <mxGeometry x="450" y="90" width="120" height="60" as="geometry" />
        </mxCell>
        <mxCell id="hBNgbqmmqu0wj6LNBko_-13" style="edgeStyle=orthogonalEdgeStyle;rounded=0;orthogonalLoop=1;jettySize=auto;html=1;" edge="1" parent="1" source="hBNgbqmmqu0wj6LNBko_-4" target="hBNgbqmmqu0wj6LNBko_-2">
          <mxGeometry relative="1" as="geometry" />
        </mxCell>
        <mxCell id="hBNgbqmmqu0wj6LNBko_-16" style="edgeStyle=orthogonalEdgeStyle;rounded=0;orthogonalLoop=1;jettySize=auto;html=1;" edge="1" parent="1" source="hBNgbqmmqu0wj6LNBko_-4" target="hBNgbqmmqu0wj6LNBko_-15">
          <mxGeometry relative="1" as="geometry" />
        </mxCell>
        <mxCell id="hBNgbqmmqu0wj6LNBko_-4" value="account" style="shape=folder;fontStyle=1;spacingTop=10;tabWidth=40;tabHeight=14;tabPosition=left;html=1;" vertex="1" parent="1">
          <mxGeometry x="260" y="150" width="120" height="60" as="geometry" />
        </mxCell>
        <mxCell id="hBNgbqmmqu0wj6LNBko_-6" value="transaction" style="shape=folder;fontStyle=1;spacingTop=10;tabWidth=40;tabHeight=14;tabPosition=left;html=1;" vertex="1" parent="1">
          <mxGeometry x="630" y="140" width="120" height="60" as="geometry" />
        </mxCell>
        <mxCell id="hBNgbqmmqu0wj6LNBko_-9" value="persistent layer" style="shape=folder;fontStyle=1;spacingTop=10;tabWidth=40;tabHeight=14;tabPosition=left;html=1;align=left;verticalAlign=top;" vertex="1" parent="1">
          <mxGeometry x="200" y="330" width="600" height="180" as="geometry" />
        </mxCell>
        <mxCell id="hBNgbqmmqu0wj6LNBko_-10" value="repository" style="shape=folder;fontStyle=1;spacingTop=10;tabWidth=40;tabHeight=14;tabPosition=left;html=1;" vertex="1" parent="1">
          <mxGeometry x="440" y="380" width="120" height="60" as="geometry" />
        </mxCell>
        <mxCell id="hBNgbqmmqu0wj6LNBko_-17" style="edgeStyle=orthogonalEdgeStyle;rounded=0;orthogonalLoop=1;jettySize=auto;html=1;" edge="1" parent="1" source="hBNgbqmmqu0wj6LNBko_-15" target="hBNgbqmmqu0wj6LNBko_-6">
          <mxGeometry relative="1" as="geometry" />
        </mxCell>
        <mxCell id="hBNgbqmmqu0wj6LNBko_-15" value="inquiry" style="shape=folder;fontStyle=1;spacingTop=10;tabWidth=40;tabHeight=14;tabPosition=left;html=1;" vertex="1" parent="1">
          <mxGeometry x="450" y="200" width="120" height="60" as="geometry" />
        </mxCell>
      </root>
    </mxGraphModel>
  </diagram>
</mxfile>
